<mxfile host="app.diagrams.net" agent="Mozilla/5.0 (Windows NT 10.0; Win64; x64) AppleWebKit/537.36 (KHTML, like Gecko) Chrome/129.0.0.0 Safari/537.36" version="24.8.0">
  <diagram name="Page-1" id="0783ab3e-0a74-02c8-0abd-f7b4e66b4bec">
    <mxGraphModel dx="2049" dy="1054" grid="1" gridSize="10" guides="1" tooltips="1" connect="1" arrows="1" fold="1" page="1" pageScale="1" pageWidth="850" pageHeight="1100" background="none" math="0" shadow="0">
      <root>
        <mxCell id="0" />
        <mxCell id="1" parent="0" />
        <mxCell id="1c1d494c118603dd-1" value="AMS Portal" style="swimlane;html=1;childLayout=stackLayout;startSize=20;rounded=0;shadow=0;comic=0;labelBackgroundColor=none;strokeWidth=1;fontFamily=Verdana;fontSize=12;align=center;fillColor=#f5f5f5;strokeColor=#666666;fontColor=#333333;" parent="1" vertex="1">
          <mxGeometry x="40" y="20" width="1660" height="990" as="geometry" />
        </mxCell>
        <mxCell id="1c1d494c118603dd-2" value="Database" style="swimlane;html=1;startSize=20;" parent="1c1d494c118603dd-1" vertex="1">
          <mxGeometry y="20" width="250" height="970" as="geometry" />
        </mxCell>
        <mxCell id="1c1d494c118603dd-3" value="DataModel" style="swimlane;html=1;startSize=20;glass=0;" parent="1c1d494c118603dd-1" vertex="1">
          <mxGeometry x="250" y="20" width="420" height="970" as="geometry" />
        </mxCell>
        <mxCell id="wW1gp_j_5MiP1NA-PQDF-19" value="Entities" style="swimlane;whiteSpace=wrap;html=1;rounded=1;strokeColor=#d6b656;align=center;verticalAlign=middle;fontFamily=Helvetica;fontSize=12;fillColor=#fff2cc;startSize=23;arcSize=10;" vertex="1" parent="1c1d494c118603dd-3">
          <mxGeometry x="10" y="40" width="200" height="200" as="geometry" />
        </mxCell>
        <mxCell id="wW1gp_j_5MiP1NA-PQDF-20" value="Extensions" style="swimlane;whiteSpace=wrap;html=1;rounded=1;strokeColor=#d6b656;align=center;verticalAlign=middle;fontFamily=Helvetica;fontSize=12;fillColor=#fff2cc;startSize=23;arcSize=8;" vertex="1" parent="1c1d494c118603dd-3">
          <mxGeometry x="20" y="290" width="160" height="140" as="geometry" />
        </mxCell>
        <mxCell id="wW1gp_j_5MiP1NA-PQDF-45" value="EnumExtensions.cs" style="text;html=1;align=center;verticalAlign=middle;resizable=0;points=[];autosize=1;strokeColor=#82b366;fillColor=#d5e8d4;fontFamily=Helvetica;fontSize=12;" vertex="1" parent="wW1gp_j_5MiP1NA-PQDF-20">
          <mxGeometry x="10" y="40" width="130" height="30" as="geometry" />
        </mxCell>
        <mxCell id="wW1gp_j_5MiP1NA-PQDF-46" value="TypeExtensions.cs" style="text;html=1;align=center;verticalAlign=middle;resizable=0;points=[];autosize=1;strokeColor=#82b366;fillColor=#d5e8d4;fontFamily=Helvetica;fontSize=12;" vertex="1" parent="wW1gp_j_5MiP1NA-PQDF-20">
          <mxGeometry x="15" y="80" width="120" height="30" as="geometry" />
        </mxCell>
        <mxCell id="wW1gp_j_5MiP1NA-PQDF-71" value="Metadata" style="swimlane;whiteSpace=wrap;html=1;rounded=1;strokeColor=#d6b656;align=center;verticalAlign=middle;fontFamily=Helvetica;fontSize=12;fillColor=#fff2cc;startSize=23;arcSize=18;" vertex="1" parent="1c1d494c118603dd-3">
          <mxGeometry x="250" y="40" width="150" height="130" as="geometry" />
        </mxCell>
        <mxCell id="wW1gp_j_5MiP1NA-PQDF-72" value="GlobalSuppresions.cs" style="rounded=0;whiteSpace=wrap;html=1;strokeColor=#82b366;align=center;verticalAlign=middle;fontFamily=Helvetica;fontSize=12;fillColor=#d5e8d4;" vertex="1" parent="1c1d494c118603dd-3">
          <mxGeometry x="230" y="330" width="120" height="60" as="geometry" />
        </mxCell>
        <mxCell id="wW1gp_j_5MiP1NA-PQDF-1" value="Repositories" style="swimlane;html=1;startSize=20;fillColor=#f5f5f5;fontColor=#333333;strokeColor=#666666;" vertex="1" parent="1c1d494c118603dd-1">
          <mxGeometry x="670" y="20" width="360" height="970" as="geometry" />
        </mxCell>
        <mxCell id="wW1gp_j_5MiP1NA-PQDF-21" value="Interfaces" style="swimlane;whiteSpace=wrap;html=1;rounded=1;strokeColor=#d6b656;align=center;verticalAlign=middle;fontFamily=Helvetica;fontSize=12;fillColor=#fff2cc;startSize=23;arcSize=10;" vertex="1" parent="wW1gp_j_5MiP1NA-PQDF-1">
          <mxGeometry x="80" y="60" width="150" height="100" as="geometry" />
        </mxCell>
        <mxCell id="wW1gp_j_5MiP1NA-PQDF-22" value="IStateManager.cs" style="text;html=1;align=center;verticalAlign=middle;resizable=0;points=[];autosize=1;strokeColor=#82b366;fillColor=#d5e8d4;fontFamily=Helvetica;fontSize=12;" vertex="1" parent="wW1gp_j_5MiP1NA-PQDF-21">
          <mxGeometry x="15" y="38" width="120" height="30" as="geometry" />
        </mxCell>
        <mxCell id="wW1gp_j_5MiP1NA-PQDF-23" value="Repositories" style="swimlane;whiteSpace=wrap;html=1;rounded=1;strokeColor=#d6b656;align=center;verticalAlign=middle;fontFamily=Helvetica;fontSize=12;fillColor=#fff2cc;startSize=23;arcSize=10;" vertex="1" parent="wW1gp_j_5MiP1NA-PQDF-1">
          <mxGeometry x="20" y="200" width="290" height="300" as="geometry" />
        </mxCell>
        <mxCell id="wW1gp_j_5MiP1NA-PQDF-24" value="CV" style="swimlane;whiteSpace=wrap;html=1;rounded=1;strokeColor=#d6b656;align=center;verticalAlign=middle;fontFamily=Helvetica;fontSize=12;fillColor=#fff2cc;startSize=23;arcSize=8;" vertex="1" parent="wW1gp_j_5MiP1NA-PQDF-23">
          <mxGeometry x="20" y="40" width="100" height="60" as="geometry" />
        </mxCell>
        <mxCell id="wW1gp_j_5MiP1NA-PQDF-36" value="Member" style="swimlane;whiteSpace=wrap;html=1;rounded=1;strokeColor=#d6b656;align=center;verticalAlign=middle;fontFamily=Helvetica;fontSize=12;fillColor=#fff2cc;startSize=23;arcSize=8;" vertex="1" parent="wW1gp_j_5MiP1NA-PQDF-23">
          <mxGeometry x="20" y="120" width="100" height="60" as="geometry" />
        </mxCell>
        <mxCell id="wW1gp_j_5MiP1NA-PQDF-37" value="Other" style="swimlane;whiteSpace=wrap;html=1;rounded=1;strokeColor=#d6b656;align=center;verticalAlign=middle;fontFamily=Helvetica;fontSize=12;fillColor=#fff2cc;startSize=23;arcSize=8;" vertex="1" parent="wW1gp_j_5MiP1NA-PQDF-23">
          <mxGeometry x="20" y="210" width="100" height="60" as="geometry" />
        </mxCell>
        <mxCell id="wW1gp_j_5MiP1NA-PQDF-38" value="Project" style="swimlane;whiteSpace=wrap;html=1;rounded=1;strokeColor=#d6b656;align=center;verticalAlign=middle;fontFamily=Helvetica;fontSize=12;fillColor=#fff2cc;startSize=23;arcSize=8;" vertex="1" parent="wW1gp_j_5MiP1NA-PQDF-23">
          <mxGeometry x="160" y="40" width="100" height="60" as="geometry" />
        </mxCell>
        <mxCell id="wW1gp_j_5MiP1NA-PQDF-39" value="Stream" style="swimlane;whiteSpace=wrap;html=1;rounded=1;strokeColor=#d6b656;align=center;verticalAlign=middle;fontFamily=Helvetica;fontSize=12;fillColor=#fff2cc;startSize=23;arcSize=8;" vertex="1" parent="wW1gp_j_5MiP1NA-PQDF-23">
          <mxGeometry x="160" y="120" width="100" height="60" as="geometry" />
        </mxCell>
        <mxCell id="wW1gp_j_5MiP1NA-PQDF-40" value="Repository.cs" style="rounded=0;whiteSpace=wrap;html=1;strokeColor=#82b366;align=center;verticalAlign=middle;fontFamily=Helvetica;fontSize=12;fillColor=#d5e8d4;" vertex="1" parent="wW1gp_j_5MiP1NA-PQDF-23">
          <mxGeometry x="150" y="210" width="120" height="60" as="geometry" />
        </mxCell>
        <mxCell id="wW1gp_j_5MiP1NA-PQDF-41" value="CacheManager.cs" style="rounded=0;whiteSpace=wrap;html=1;strokeColor=#82b366;align=center;verticalAlign=middle;fontFamily=Helvetica;fontSize=12;fillColor=#d5e8d4;" vertex="1" parent="wW1gp_j_5MiP1NA-PQDF-1">
          <mxGeometry x="40" y="540" width="120" height="60" as="geometry" />
        </mxCell>
        <mxCell id="wW1gp_j_5MiP1NA-PQDF-42" value="EntitiesConverter.cs" style="rounded=0;whiteSpace=wrap;html=1;strokeColor=#82b366;align=center;verticalAlign=middle;fontFamily=Helvetica;fontSize=12;fillColor=#d5e8d4;" vertex="1" parent="wW1gp_j_5MiP1NA-PQDF-1">
          <mxGeometry x="190" y="540" width="120" height="60" as="geometry" />
        </mxCell>
        <mxCell id="wW1gp_j_5MiP1NA-PQDF-43" value="ObjectHelper.cs" style="rounded=0;whiteSpace=wrap;html=1;strokeColor=#82b366;align=center;verticalAlign=middle;fontFamily=Helvetica;fontSize=12;fillColor=#d5e8d4;" vertex="1" parent="wW1gp_j_5MiP1NA-PQDF-1">
          <mxGeometry x="40" y="640" width="120" height="60" as="geometry" />
        </mxCell>
        <mxCell id="wW1gp_j_5MiP1NA-PQDF-44" value="TypeExtensions.cs" style="rounded=0;whiteSpace=wrap;html=1;strokeColor=#82b366;align=center;verticalAlign=middle;fontFamily=Helvetica;fontSize=12;fillColor=#d5e8d4;" vertex="1" parent="wW1gp_j_5MiP1NA-PQDF-1">
          <mxGeometry x="190" y="640" width="120" height="60" as="geometry" />
        </mxCell>
        <mxCell id="wW1gp_j_5MiP1NA-PQDF-69" value="App.config" style="rounded=0;whiteSpace=wrap;html=1;strokeColor=#23445d;align=center;verticalAlign=middle;fontFamily=Helvetica;fontSize=12;fillColor=#bac8d3;" vertex="1" parent="wW1gp_j_5MiP1NA-PQDF-1">
          <mxGeometry x="40" y="770" width="120" height="60" as="geometry" />
        </mxCell>
        <mxCell id="wW1gp_j_5MiP1NA-PQDF-70" value="packages.config" style="rounded=0;whiteSpace=wrap;html=1;strokeColor=#23445d;align=center;verticalAlign=middle;fontFamily=Helvetica;fontSize=12;fillColor=#bac8d3;" vertex="1" parent="wW1gp_j_5MiP1NA-PQDF-1">
          <mxGeometry x="190" y="770" width="120" height="60" as="geometry" />
        </mxCell>
        <mxCell id="wW1gp_j_5MiP1NA-PQDF-3" value="Resources" style="swimlane;html=1;startSize=20;" vertex="1" parent="1c1d494c118603dd-1">
          <mxGeometry x="1030" y="20" width="380" height="970" as="geometry" />
        </mxCell>
        <mxCell id="wW1gp_j_5MiP1NA-PQDF-4" value="Web" style="swimlane;html=1;startSize=20;" vertex="1" parent="1">
          <mxGeometry x="1450" y="40" width="250" height="970" as="geometry" />
        </mxCell>
      </root>
    </mxGraphModel>
  </diagram>
</mxfile>
